<svg id="visual" viewBox="0 0 900 450" width="900" height="450" xmlns="http://www.w3.org/2000/svg" xmlns:xlink="http://www.w3.org/1999/xlink" version="1.1"><path d="M0 100L7.5 87.3C15 74.7 30 49.3 45 41.8C60 34.3 75 44.7 90 54.3C105 64 120 73 135 73C150 73 165 64 180 54.3C195 44.7 210 34.3 225 31.3C240 28.3 255 32.7 270 32.7C285 32.7 300 28.3 315 32.2C330 36 345 48 360 49.5C375 51 390 42 405 48.7C420 55.3 435 77.7 450 79.2C465 80.7 480 61.3 495 54.7C510 48 525 54 540 54C555 54 570 48 585 52.5C600 57 615 72 630 74.2C645 76.3 660 65.7 675 66.3C690 67 705 79 720 73C735 67 750 43 765 31.8C780 20.7 795 22.3 810 28.3C825 34.3 840 44.7 855 48.3C870 52 885 49 892.5 47.5L900 46L900 0L892.5 0C885 0 870 0 855 0C840 0 825 0 810 0C795 0 780 0 765 0C750 0 735 0 720 0C705 0 690 0 675 0C660 0 645 0 630 0C615 0 600 0 585 0C570 0 555 0 540 0C525 0 510 0 495 0C480 0 465 0 450 0C435 0 420 0 405 0C390 0 375 0 360 0C345 0 330 0 315 0C300 0 285 0 270 0C255 0 240 0 225 0C210 0 195 0 180 0C165 0 150 0 135 0C120 0 105 0 90 0C75 0 60 0 45 0C30 0 15 0 7.5 0L0 0Z" fill="#00245a"></path><path d="M0 136L7.5 125.5C15 115 30 94 45 85.8C60 77.7 75 82.3 90 90.7C105 99 120 111 135 111C150 111 165 99 180 86.2C195 73.3 210 59.7 225 58.8C240 58 255 70 270 75.3C285 80.7 300 79.3 315 83.2C330 87 345 96 360 90.7C375 85.3 390 65.7 405 74.7C420 83.7 435 121.3 450 126.7C465 132 480 105 495 95.2C510 85.3 525 92.7 540 90.3C555 88 570 76 585 79.8C600 83.7 615 103.3 630 103.3C645 103.3 660 83.7 675 85.2C690 86.7 705 109.3 720 106.3C735 103.3 750 74.7 765 58.8C780 43 795 40 810 45.3C825 50.7 840 64.3 855 75.7C870 87 885 96 892.5 100.5L900 105L900 44L892.5 45.5C885 47 870 50 855 46.3C840 42.7 825 32.3 810 26.3C795 20.3 780 18.7 765 29.8C750 41 735 65 720 71C705 77 690 65 675 64.3C660 63.7 645 74.3 630 72.2C615 70 600 55 585 50.5C570 46 555 52 540 52C525 52 510 46 495 52.7C480 59.3 465 78.7 450 77.2C435 75.7 420 53.3 405 46.7C390 40 375 49 360 47.5C345 46 330 34 315 30.2C300 26.3 285 30.7 270 30.7C255 30.7 240 26.3 225 29.3C210 32.3 195 42.7 180 52.3C165 62 150 71 135 71C120 71 105 62 90 52.3C75 42.7 60 32.3 45 39.8C30 47.3 15 72.7 7.5 85.3L0 98Z" fill="#004d7b"></path><path d="M0 244L7.5 233.5C15 223 30 202 45 192.3C60 182.7 75 184.3 90 189.7C105 195 120 204 135 192.7C150 181.3 165 149.7 180 156.3C195 163 210 208 225 211C240 214 255 175 270 170.5C285 166 300 196 315 212.5C330 229 345 232 360 209.5C375 187 390 139 405 149.5C420 160 435 229 450 247C465 265 480 232 495 211.8C510 191.7 525 184.3 540 176.2C555 168 570 159 585 174.7C600 190.3 615 230.7 630 225.3C645 220 660 169 675 168.3C690 167.7 705 217.3 720 229.3C735 241.3 750 215.7 765 204.3C780 193 795 196 810 189.3C825 182.7 840 166.3 855 159.7C870 153 885 156 892.5 157.5L900 159L900 103L892.5 98.5C885 94 870 85 855 73.7C840 62.3 825 48.7 810 43.3C795 38 780 41 765 56.8C750 72.7 735 101.3 720 104.3C705 107.3 690 84.7 675 83.2C660 81.7 645 101.3 630 101.3C615 101.3 600 81.7 585 77.8C570 74 555 86 540 88.3C525 90.7 510 83.3 495 93.2C480 103 465 130 450 124.7C435 119.3 420 81.7 405 72.7C390 63.7 375 83.3 360 88.7C345 94 330 85 315 81.2C300 77.3 285 78.7 270 73.3C255 68 240 56 225 56.8C210 57.7 195 71.3 180 84.2C165 97 150 109 135 109C120 109 105 97 90 88.7C75 80.3 60 75.7 45 83.8C30 92 15 113 7.5 123.5L0 134Z" fill="#007695"></path><path d="M0 262L7.5 249.3C15 236.7 30 211.3 45 203.8C60 196.3 75 206.7 90 215.7C105 224.7 120 232.3 135 222.7C150 213 165 186 180 195C195 204 210 249 225 251.2C240 253.3 255 212.7 270 207.3C285 202 300 232 315 247.8C330 263.7 345 265.3 360 241.3C375 217.3 390 167.7 405 174.3C420 181 435 244 450 260.5C465 277 480 247 495 227.5C510 208 525 199 540 189.3C555 179.7 570 169.3 585 185.8C600 202.3 615 245.7 630 243.3C645 241 660 193 675 194.5C690 196 705 247 720 256.8C735 266.7 750 235.3 765 220.3C780 205.3 795 206.7 810 200.7C825 194.7 840 181.3 855 176.2C870 171 885 174 892.5 175.5L900 177L900 157L892.5 155.5C885 154 870 151 855 157.7C840 164.3 825 180.7 810 187.3C795 194 780 191 765 202.3C750 213.7 735 239.3 720 227.3C705 215.3 690 165.7 675 166.3C660 167 645 218 630 223.3C615 228.7 600 188.3 585 172.7C570 157 555 166 540 174.2C525 182.3 510 189.7 495 209.8C480 230 465 263 450 245C435 227 420 158 405 147.5C390 137 375 185 360 207.5C345 230 330 227 315 210.5C300 194 285 164 270 168.5C255 173 240 212 225 209C210 206 195 161 180 154.3C165 147.7 150 179.3 135 190.7C120 202 105 193 90 187.7C75 182.3 60 180.7 45 190.3C30 200 15 221 7.5 231.5L0 242Z" fill="#009b72"></path><path d="M0 271L7.5 259C15 247 30 223 45 221.5C60 220 75 241 90 254.5C105 268 120 274 135 268.8C150 263.7 165 247.3 180 255.7C195 264 210 297 225 298.5C240 300 255 270 270 269.2C285 268.3 300 296.7 315 304.2C330 311.7 345 298.3 360 269.8C375 241.3 390 197.7 405 205.8C420 214 435 274 450 292.8C465 311.7 480 289.3 495 272.8C510 256.3 525 245.7 540 241.2C555 236.7 570 238.3 585 251.8C600 265.3 615 290.7 630 283.2C645 275.7 660 235.3 675 237.7C690 240 705 285 720 292.5C735 300 750 270 765 258C780 246 795 252 810 251.2C825 250.3 840 242.7 855 232.2C870 221.7 885 208.3 892.5 201.7L900 195L900 175L892.5 173.5C885 172 870 169 855 174.2C840 179.3 825 192.7 810 198.7C795 204.7 780 203.3 765 218.3C750 233.3 735 264.7 720 254.8C705 245 690 194 675 192.5C660 191 645 239 630 241.3C615 243.7 600 200.3 585 183.8C570 167.3 555 177.7 540 187.3C525 197 510 206 495 225.5C480 245 465 275 450 258.5C435 242 420 179 405 172.3C390 165.7 375 215.3 360 239.3C345 263.3 330 261.7 315 245.8C300 230 285 200 270 205.3C255 210.7 240 251.3 225 249.2C210 247 195 202 180 193C165 184 150 211 135 220.7C120 230.3 105 222.7 90 213.7C75 204.7 60 194.3 45 201.8C30 209.3 15 234.7 7.5 247.3L0 260Z" fill="#1ca925"></path><path d="M0 298L7.5 283C15 268 30 238 45 235.8C60 233.7 75 259.3 90 278.2C105 297 120 309 135 304.5C150 300 165 279 180 287.2C195 295.3 210 332.7 225 333.3C240 334 255 298 270 296.5C285 295 300 328 315 337C330 346 345 331 360 298C375 265 390 214 405 224.5C420 235 435 307 450 326.5C465 346 480 313 495 295.8C510 278.7 525 277.3 540 275.8C555 274.3 570 272.7 585 285.3C600 298 615 325 630 316.8C645 308.7 660 265.3 675 268.3C690 271.3 705 320.7 720 326.7C735 332.7 750 295.3 765 283.3C780 271.3 795 284.7 810 289.8C825 295 840 292 855 278.5C870 265 885 241 892.5 229L900 217L900 193L892.5 199.7C885 206.3 870 219.7 855 230.2C840 240.7 825 248.3 810 249.2C795 250 780 244 765 256C750 268 735 298 720 290.5C705 283 690 238 675 235.7C660 233.3 645 273.7 630 281.2C615 288.7 600 263.3 585 249.8C570 236.3 555 234.7 540 239.2C525 243.7 510 254.3 495 270.8C480 287.3 465 309.7 450 290.8C435 272 420 212 405 203.8C390 195.7 375 239.3 360 267.8C345 296.3 330 309.7 315 302.2C300 294.7 285 266.3 270 267.2C255 268 240 298 225 296.5C210 295 195 262 180 253.7C165 245.3 150 261.7 135 266.8C120 272 105 266 90 252.5C75 239 60 218 45 219.5C30 221 15 245 7.5 257L0 269Z" fill="#1ca925"></path><path d="M0 330L7.5 316.5C15 303 30 276 45 270.7C60 265.3 75 281.7 90 299.7C105 317.7 120 337.3 135 335.2C150 333 165 309 180 312.7C195 316.3 210 347.7 225 348.3C240 349 255 319 270 318.3C285 317.7 300 346.3 315 357.7C330 369 345 363 360 328.5C375 294 390 231 405 237.7C420 244.3 435 320.7 450 345.3C465 370 480 343 495 329.5C510 316 525 316 540 313C555 310 570 304 585 314.5C600 325 615 352 630 346C645 340 660 301 675 306.3C690 311.7 705 361.3 720 368.2C735 375 750 339 765 321.7C780 304.3 795 305.7 810 307.2C825 308.7 840 310.3 855 300.7C870 291 885 270 892.5 259.5L900 249L900 215L892.5 227C885 239 870 263 855 276.5C840 290 825 293 810 287.8C795 282.7 780 269.3 765 281.3C750 293.3 735 330.7 720 324.7C705 318.7 690 269.3 675 266.3C660 263.3 645 306.7 630 314.8C615 323 600 296 585 283.3C570 270.7 555 272.3 540 273.8C525 275.3 510 276.7 495 293.8C480 311 465 344 450 324.5C435 305 420 233 405 222.5C390 212 375 263 360 296C345 329 330 344 315 335C300 326 285 293 270 294.5C255 296 240 332 225 331.3C210 330.7 195 293.3 180 285.2C165 277 150 298 135 302.5C120 307 105 295 90 276.2C75 257.3 60 231.7 45 233.8C30 236 15 266 7.5 281L0 296Z" fill="#009b72"></path><path d="M0 366L7.5 349.5C15 333 30 300 45 294.7C60 289.3 75 311.7 90 332.7C105 353.7 120 373.3 135 367.3C150 361.3 165 329.7 180 331.2C195 332.7 210 367.3 225 368.8C240 370.3 255 338.7 270 336.3C285 334 300 361 315 370.8C330 380.7 345 373.3 360 340.3C375 307.3 390 248.7 405 255.3C420 262 435 334 450 359.5C465 385 480 364 495 351.3C510 338.7 525 334.3 540 327.7C555 321 570 312 585 323.2C600 334.3 615 365.7 630 364.8C645 364 660 331 675 334.8C690 338.7 705 379.3 720 381.7C735 384 750 348 765 330.7C780 313.3 795 314.7 810 317.7C825 320.7 840 325.3 855 320.2C870 315 885 300 892.5 292.5L900 285L900 247L892.5 257.5C885 268 870 289 855 298.7C840 308.3 825 306.7 810 305.2C795 303.7 780 302.3 765 319.7C750 337 735 373 720 366.2C705 359.3 690 309.7 675 304.3C660 299 645 338 630 344C615 350 600 323 585 312.5C570 302 555 308 540 311C525 314 510 314 495 327.5C480 341 465 368 450 343.3C435 318.7 420 242.3 405 235.7C390 229 375 292 360 326.5C345 361 330 367 315 355.7C300 344.3 285 315.7 270 316.3C255 317 240 347 225 346.3C210 345.7 195 314.3 180 310.7C165 307 150 331 135 333.2C120 335.3 105 315.7 90 297.7C75 279.7 60 263.3 45 268.7C30 274 15 301 7.5 314.5L0 328Z" fill="#007695"></path><path d="M0 402L7.5 384.7C15 367.3 30 332.7 45 323.7C60 314.7 75 331.3 90 349.3C105 367.3 120 386.7 135 384.3C150 382 165 358 180 359.5C195 361 210 388 225 386.5C240 385 255 355 270 352C285 349 300 373 315 387.3C330 401.7 345 406.3 360 379.3C375 352.3 390 293.7 405 295.2C420 296.7 435 358.3 450 383.8C465 409.3 480 398.7 495 391.8C510 385 525 382 540 374.5C555 367 570 355 585 359.5C600 364 615 385 630 380.5C645 376 660 346 675 349.8C690 353.7 705 391.3 720 397.3C735 403.3 750 377.7 765 367.8C780 358 795 364 810 362.5C825 361 840 352 855 341.5C870 331 885 319 892.5 313L900 307L900 283L892.5 290.5C885 298 870 313 855 318.2C840 323.3 825 318.7 810 315.7C795 312.7 780 311.3 765 328.7C750 346 735 382 720 379.7C705 377.3 690 336.7 675 332.8C660 329 645 362 630 362.8C615 363.7 600 332.3 585 321.2C570 310 555 319 540 325.7C525 332.3 510 336.7 495 349.3C480 362 465 383 450 357.5C435 332 420 260 405 253.3C390 246.7 375 305.3 360 338.3C345 371.3 330 378.7 315 368.8C300 359 285 332 270 334.3C255 336.7 240 368.3 225 366.8C210 365.3 195 330.7 180 329.2C165 327.7 150 359.3 135 365.3C120 371.3 105 351.7 90 330.7C75 309.7 60 287.3 45 292.7C30 298 15 331 7.5 347.5L0 364Z" fill="#004d7b"></path><path d="M0 451L7.5 451C15 451 30 451 45 451C60 451 75 451 90 451C105 451 120 451 135 451C150 451 165 451 180 451C195 451 210 451 225 451C240 451 255 451 270 451C285 451 300 451 315 451C330 451 345 451 360 451C375 451 390 451 405 451C420 451 435 451 450 451C465 451 480 451 495 451C510 451 525 451 540 451C555 451 570 451 585 451C600 451 615 451 630 451C645 451 660 451 675 451C690 451 705 451 720 451C735 451 750 451 765 451C780 451 795 451 810 451C825 451 840 451 855 451C870 451 885 451 892.5 451L900 451L900 305L892.5 311C885 317 870 329 855 339.5C840 350 825 359 810 360.5C795 362 780 356 765 365.8C750 375.7 735 401.3 720 395.3C705 389.3 690 351.7 675 347.8C660 344 645 374 630 378.5C615 383 600 362 585 357.5C570 353 555 365 540 372.5C525 380 510 383 495 389.8C480 396.7 465 407.3 450 381.8C435 356.3 420 294.7 405 293.2C390 291.7 375 350.3 360 377.3C345 404.3 330 399.7 315 385.3C300 371 285 347 270 350C255 353 240 383 225 384.5C210 386 195 359 180 357.5C165 356 150 380 135 382.3C120 384.7 105 365.3 90 347.3C75 329.3 60 312.7 45 321.7C30 330.7 15 365.3 7.5 382.7L0 400Z" fill="#00245a"></path></svg>